<svg width="90" height="13" viewBox="0 0 90 13" fill="none" xmlns="http://www.w3.org/2000/svg">
<path fill-rule="evenodd" clip-rule="evenodd" d="M38.2109 0V12H39.5549V0H38.2109ZM0.960938 12L3.12894 0.8H4.16094L7.18494 8.752L10.2009 0.8H11.2329L13.4089 12H12.0409L10.4649 3.872L7.62494 11.392H6.73694L3.89694 3.872L2.32894 12H0.960938ZM18.1528 12.208C17.4168 12.208 16.7448 12.0187 16.1368 11.64C15.5341 11.2613 15.0515 10.7547 14.6888 10.12C14.3315 9.48 14.1528 8.77333 14.1528 8C14.1528 7.41333 14.2568 6.86667 14.4648 6.36C14.6728 5.848 14.9581 5.4 15.3208 5.016C15.6888 4.62667 16.1155 4.32267 16.6008 4.104C17.0861 3.88533 17.6035 3.776 18.1528 3.776C18.7555 3.776 19.3075 3.89867 19.8088 4.144C20.3155 4.384 20.7475 4.72 21.1048 5.152C21.4675 5.584 21.7368 6.08533 21.9128 6.656C22.0941 7.22667 22.1608 7.83733 22.1128 8.488H15.5848C15.6488 8.94133 15.7981 9.34667 16.0328 9.704C16.2675 10.056 16.5661 10.336 16.9288 10.544C17.2968 10.752 17.7048 10.8587 18.1528 10.864C18.6328 10.864 19.0675 10.7413 19.4568 10.496C19.8461 10.2453 20.1608 9.904 20.4008 9.472L21.7688 9.792C21.4488 10.5013 20.9661 11.0827 20.3208 11.536C19.6755 11.984 18.9528 12.208 18.1528 12.208ZM15.5448 7.432H20.7608C20.7181 6.984 20.5741 6.576 20.3288 6.208C20.0835 5.83467 19.7715 5.536 19.3928 5.312C19.0141 5.088 18.6008 4.976 18.1528 4.976C17.7048 4.976 17.2941 5.08533 16.9208 5.304C16.5475 5.52267 16.2381 5.81867 15.9928 6.192C15.7528 6.56 15.6035 6.97333 15.5448 7.432ZM25.6952 5.344H27.5112V4H25.6952L25.6872 1.488H24.3432L24.3512 4H22.9752V5.344H24.3512L24.3432 12H25.6872L25.6952 5.344ZM35.1742 4H36.5182V12H35.1742L35.1182 10.648C34.8675 11.112 34.5209 11.488 34.0782 11.776C33.6409 12.064 33.1182 12.208 32.5102 12.208C31.9235 12.208 31.3742 12.0987 30.8622 11.88C30.3502 11.656 29.8969 11.3493 29.5022 10.96C29.1129 10.5653 28.8089 10.112 28.5902 9.6C28.3715 9.088 28.2622 8.536 28.2622 7.944C28.2622 7.37333 28.3689 6.83467 28.5822 6.328C28.7955 5.82133 29.0915 5.37867 29.4702 5C29.8542 4.616 30.2969 4.31733 30.7982 4.104C31.2995 3.88533 31.8382 3.776 32.4142 3.776C33.0435 3.776 33.5955 3.92533 34.0702 4.224C34.5449 4.51733 34.9289 4.89867 35.2222 5.368L35.1742 4ZM32.4862 10.904C33.0142 10.904 33.4702 10.776 33.8542 10.52C34.2435 10.2587 34.5422 9.90667 34.7502 9.464C34.9635 9.02133 35.0702 8.53333 35.0702 8C35.0702 7.456 34.9635 6.96533 34.7502 6.528C34.5369 6.08533 34.2355 5.736 33.8462 5.48C33.4622 5.21867 33.0089 5.088 32.4862 5.088C31.9582 5.088 31.4782 5.21867 31.0462 5.48C30.6142 5.74133 30.2702 6.09333 30.0142 6.536C29.7635 6.97333 29.6382 7.46133 29.6382 8C29.6382 8.53867 29.7689 9.02933 30.0302 9.472C30.2915 9.90933 30.6382 10.2587 31.0702 10.52C31.5022 10.776 31.9742 10.904 32.4862 10.904ZM51.2477 9.65265L47.7704 1H45.324L45.2716 1.30841H46.0404C46.1686 1.30841 46.2327 1.34268 46.2327 1.41122C46.2327 1.46833 45.5337 4.74091 44.1358 11.229C44.1009 11.4003 44.0077 11.486 43.8562 11.486H43.0524L43 11.7944H45.6036L45.656 11.486H44.8872C44.759 11.486 44.695 11.4517 44.695 11.3832C44.695 11.3032 45.3764 8.08775 46.7394 1.73676L50.8283 11.7944H51.3525L53.5542 1.54829C53.6008 1.38837 53.6998 1.30841 53.8513 1.30841H54.6376L54.69 1H52.1039L52.0515 1.30841H52.8203C52.9484 1.30841 53.0125 1.33697 53.0125 1.39408C53.0125 1.43977 52.4242 4.19263 51.2477 9.65265ZM60.7826 8.33333C61.1438 6.97404 61.5282 5.70042 61.9359 4.51246L61.6913 4.34112L61.1496 5.26636C60.6487 4.54673 59.9672 4.18692 59.1052 4.18692C58.4411 4.18692 57.8296 4.35254 57.2704 4.6838C56.7112 5.00363 56.2627 5.42627 55.9249 5.95171C55.5871 6.46573 55.325 7.01973 55.1386 7.61371C54.9522 8.20768 54.859 8.85306 54.859 9.54984C54.859 10.2352 55.0396 10.8178 55.4007 11.2975C55.7735 11.7658 56.2336 12 56.7811 12C57.7364 12 58.5751 11.2975 59.2974 9.89252H59.3847C59.3265 10.2695 59.2974 10.5436 59.2974 10.715C59.2974 11.5717 59.6585 12 60.3807 12C61.1845 12 61.8369 11.3032 62.3378 9.90966L62.0582 9.84112C61.8718 10.378 61.6505 10.7949 61.3942 11.0919C61.1379 11.3775 60.8991 11.5202 60.6778 11.5202C60.3866 11.5202 60.241 11.3318 60.241 10.9548C60.241 10.5665 60.4215 9.69263 60.7826 8.33333ZM58.6858 10.3723C58.1849 11.1147 57.6898 11.486 57.2005 11.486C56.8394 11.486 56.5481 11.3261 56.3268 11.0062C56.1171 10.6864 56.0123 10.2066 56.0123 9.56698C56.0123 8.59605 56.2511 7.56231 56.7287 6.46573C56.9617 5.92887 57.282 5.48339 57.6898 5.12928C58.1091 4.77518 58.5809 4.59813 59.1052 4.59813C59.641 4.59813 60.1128 4.79232 60.5205 5.18069C60.4623 5.38629 60.3807 5.71755 60.2759 6.17446C59.7866 8.1163 59.2566 9.51558 58.6858 10.3723ZM64.0677 5.00935L64.1551 4.6838C64.7958 4.6838 65.3142 4.53531 65.7103 4.23832C66.1063 3.92991 66.4849 3.37591 66.8461 2.57632L67.0907 2.74766C66.9297 3.22809 66.7351 3.87347 66.5068 4.6838H68.0343L67.9469 5.00935H66.4157C66.2892 5.46493 66.1531 5.96753 66.0073 6.51713C65.5647 8.23053 65.2967 9.33853 65.2035 9.84112C65.1103 10.3323 65.0637 10.7035 65.0637 10.9548C65.0637 11.3318 65.2094 11.5202 65.5006 11.5202C65.7219 11.5202 65.9607 11.3775 66.217 11.0919C66.4733 10.7949 66.6946 10.378 66.881 9.84112L67.1606 9.90966C66.6597 11.3032 66.0073 12 65.2035 12C64.4813 12 64.1201 11.5717 64.1201 10.715C64.1201 10.0231 64.5315 8.12124 65.3542 5.00935H64.0677ZM73.2479 9.89252C73.1897 10.2695 73.1605 10.5436 73.1605 10.715C73.1605 11.5717 73.5217 12 74.2439 12C75.0477 12 75.7001 11.3032 76.201 9.90966L75.9214 9.84112C75.735 10.378 75.5137 10.7949 75.2574 11.0919C75.0011 11.3775 74.7623 11.5202 74.541 11.5202C74.2497 11.5202 74.1041 11.3318 74.1041 10.9548C74.1041 10.5665 74.2847 9.69263 74.6458 8.33333C75.0069 6.97404 75.3914 5.70042 75.7991 4.51246L75.5545 4.34112C74.8555 4.52388 74.1041 4.66667 73.3003 4.76947L73.3178 5.06075L74.4361 4.97508L73.842 7.21963C73.5042 8.52181 73.0732 9.56127 72.549 10.338C72.0364 11.1033 71.5122 11.486 70.9763 11.486C70.3356 11.486 70.0152 11.0691 70.0152 10.2352C70.0152 9.40135 70.5045 7.49377 71.483 4.51246L71.2384 4.34112C70.5395 4.52388 69.7881 4.66667 68.9843 4.76947L69.0018 5.06075L70.1201 4.97508L69.8056 6.15732C69.2697 8.16771 69.0018 9.54413 69.0018 10.2866C69.0018 11.4289 69.526 12 70.5744 12C71.5529 12 72.415 11.2975 73.1605 9.89252H73.2479ZM80.3703 4.34112L80.6149 4.51246C80.0557 5.76895 79.5665 7.21392 79.1471 8.84735H79.2869L79.5665 8.09346C80.114 6.63136 80.6557 5.61475 81.1915 5.04361C81.7274 4.47248 82.1934 4.18692 82.5895 4.18692C82.9855 4.18692 83.2768 4.31256 83.4631 4.56386C83.6612 4.81516 83.7602 5.14071 83.7602 5.5405C83.7602 5.94029 83.6845 6.28868 83.533 6.58567C83.3816 6.88266 83.1603 7.03115 82.869 7.03115C82.5894 7.03115 82.3565 6.93977 82.1701 6.75701C82.2866 6.60852 82.3972 6.39149 82.5021 6.10592C82.6069 5.82035 82.6593 5.56906 82.6593 5.35203C82.6593 5.02077 82.5196 4.85514 82.24 4.85514C81.9487 4.85514 81.5876 5.13499 81.1566 5.6947C80.213 6.9055 79.415 8.93873 78.7627 11.7944L77.5395 11.8972L79.252 4.97508L78.1336 5.06075L78.1161 4.76947C78.9199 4.66667 79.6713 4.52388 80.3703 4.34112ZM89.5282 4.6324C89.2253 4.33541 88.7652 4.18692 88.1478 4.18692C87.2974 4.18692 86.5402 4.46677 85.8762 5.02648C85.2122 5.57477 84.7229 6.23157 84.4084 6.99689C84.0938 7.75078 83.9366 8.53323 83.9366 9.34424C83.9366 10.1552 84.1637 10.8006 84.6181 11.2804C85.0724 11.7601 85.6315 12 86.2955 12C86.9595 12 87.5537 11.8115 88.0779 11.4346C88.6137 11.0462 89.0215 10.5036 89.301 9.80685L89.0215 9.73832C88.4856 10.972 87.641 11.5888 86.4878 11.5888C85.5558 11.5888 85.0899 10.8349 85.0899 9.3271C85.0899 8.99533 85.1288 8.63871 85.2068 8.25724C85.4664 8.29655 85.7594 8.3162 86.0859 8.3162C87.5304 8.3162 88.6196 7.97352 89.3535 7.28816C89.7845 6.88837 90 6.42004 90 5.88318C90 5.33489 89.8427 4.91797 89.5282 4.6324ZM85.2823 7.92784C85.5525 7.95829 85.7854 7.97352 85.981 7.97352C86.9479 7.97352 87.6935 7.73364 88.2177 7.25389C88.7535 6.77414 89.0215 6.2487 89.0215 5.67757C89.0215 5.36916 88.9341 5.11215 88.7594 4.90654C88.5963 4.70093 88.3167 4.59813 87.9206 4.59813C87.5362 4.59813 87.1401 4.77518 86.7324 5.12928C86.3363 5.48339 86.0218 5.92316 85.7888 6.4486C85.5673 6.97522 85.3985 7.46831 85.2823 7.92784Z" fill="white"/>
</svg>
