<svg width="134" height="11" viewBox="0 0 134 11" fill="none" xmlns="http://www.w3.org/2000/svg">
<path d="M28 10.8156V0H30.0387L32.4615 7.65795C32.6849 8.37112 32.8478 8.90476 32.9502 9.25889C33.0666 8.86541 33.2481 8.2875 33.4948 7.52515L35.9455 0H37.7678V10.8156H36.4621V1.76325L33.4878 10.8156H32.266L29.3056 1.60832V10.8156H28Z" fill="#1A1B1C"/>
<path d="M39.981 10.8156V0H47.3819V1.27632H41.3355V4.58887H46.9979V5.85781H41.3355V9.53924H47.6193V10.8156H39.981Z" fill="#1A1B1C"/>
<path d="M52.0947 10.8156V1.27632H48.7224V0H56.8355V1.27632H53.4492V10.8156H52.0947Z" fill="#1A1B1C"/>
<path d="M56.0465 10.8156L59.9773 0H61.4366L65.6257 10.8156H64.0827L62.8888 7.53991H58.6089L57.4848 10.8156H56.0465ZM58.9999 6.37425H62.4699L61.4017 3.37894C61.0758 2.46904 60.8338 1.72144 60.6755 1.13615C60.5452 1.82964 60.3613 2.51822 60.124 3.20188L58.9999 6.37425Z" fill="#1A1B1C"/>
<path d="M66.6521 10.8156V0H68.0066V9.53924H73.0476V10.8156H66.6521Z" fill="#1A1B1C"/>
<path d="M78.1025 10.8156V0H79.4919L84.868 8.49162V0H86.1666V10.8156H84.7772L79.4011 2.31657V10.8156H78.1025Z" fill="#1A1B1C"/>
<path d="M87.3256 10.8156L91.2565 0H92.7157L96.9049 10.8156H95.3619L94.168 7.53991H89.888L88.7639 10.8156H87.3256ZM90.279 6.37425H93.749L92.6808 3.37894C92.355 2.46904 92.1129 1.72144 91.9547 1.13615C91.8244 1.82964 91.6405 2.51822 91.4031 3.20188L90.279 6.37425Z" fill="#1A1B1C"/>
<path d="M99.5301 10.8156V1.27632H96.1578V0H104.271V1.27632H100.885V10.8156H99.5301Z" fill="#1A1B1C"/>
<path d="M112.384 0H113.738V6.24883C113.738 7.33579 113.622 8.19897 113.389 8.83836C113.157 9.47776 112.735 9.99911 112.126 10.4024C111.52 10.8008 110.724 11 109.738 11C108.779 11 107.995 10.8254 107.385 10.4762C106.775 10.127 106.34 9.62285 106.079 8.96378C105.819 8.2998 105.688 7.39481 105.688 6.24883V0H107.043V6.24145C107.043 7.18086 107.124 7.87436 107.287 8.32193C107.455 8.76459 107.739 9.10642 108.139 9.34742C108.544 9.58842 109.037 9.70892 109.619 9.70892C110.615 9.70892 111.325 9.47038 111.749 8.99329C112.172 8.51621 112.384 7.59893 112.384 6.24145V0Z" fill="#1A1B1C"/>
<path d="M116.021 10.8156V0H120.56C121.472 0 122.166 0.098368 122.64 0.295104C123.115 0.486922 123.494 0.82875 123.778 1.32059C124.062 1.81243 124.204 2.35591 124.204 2.95104C124.204 3.71831 123.969 4.36508 123.499 4.89135C123.029 5.41762 122.303 5.75207 121.321 5.8947C121.679 6.07668 121.951 6.2562 122.138 6.43327C122.533 6.8169 122.908 7.29644 123.262 7.8719L125.042 10.8156H123.339L121.984 8.56539C121.588 7.91616 121.263 7.4194 121.007 7.07512C120.751 6.73083 120.52 6.48983 120.315 6.35211C120.115 6.2144 119.91 6.11849 119.701 6.06439C119.547 6.02996 119.296 6.01274 118.947 6.01274H117.376V10.8156H116.021ZM117.376 4.77331H120.287C120.907 4.77331 121.391 4.70691 121.74 4.57411C122.089 4.4364 122.354 4.21999 122.536 3.92488C122.717 3.62486 122.808 3.30025 122.808 2.95104C122.808 2.43953 122.631 2.019 122.277 1.68947C121.928 1.35994 121.374 1.19517 120.616 1.19517H117.376V4.77331Z" fill="#1A1B1C"/>
<path d="M126.362 10.8156V0H133.763V1.27632H127.716V4.58887H133.379V5.85781H127.716V9.53924H134V10.8156H126.362Z" fill="#1A1B1C"/>
<path d="M13 0H24V11H13V0Z" fill="#1A1B1C"/>
<path d="M11 11L11 0C4.92487 2.65552e-07 6.88122e-07 4.92487 9.53674e-07 11L11 11Z" fill="#1A1B1C"/>
</svg>
