<svg width="139" height="12" viewBox="0 0 139 12" fill="none" xmlns="http://www.w3.org/2000/svg">
<path d="M13 0H24V11H13V0Z" fill="#1A1B1C"/>
<path d="M11 11L11 -9.53674e-07V-9.53674e-07C4.92487 -6.88122e-07 6.88122e-07 4.92487 9.53674e-07 11V11L11 11Z" fill="#1A1B1C"/>
<path d="M28 11.2L30.168 0H31.2L34.224 7.952L37.24 0H38.272L40.448 11.2H39.08L37.504 3.072L34.664 10.592H33.776L30.936 3.072L29.368 11.2H28Z" fill="#1A1B1C"/>
<path d="M42.0938 11.2V0H48.9657V1.344H43.4377V4.528H47.9657V5.872H43.4377V9.856H48.9657V11.2H42.0938Z" fill="#1A1B1C"/>
<path d="M59.1908 0V1.344H55.4627V11.2H54.1187V1.344H50.3988V0H59.1908Z" fill="#1A1B1C"/>
<path d="M63.127 0H64.751L68.823 11.2H67.399L66.567 8.912H61.311L60.487 11.2H59.055L63.127 0ZM61.807 7.568H66.071L63.935 1.72L61.807 7.568Z" fill="#1A1B1C"/>
<path d="M70.2812 11.2V0H71.6253V9.856H76.6413V11.2H70.2812Z" fill="#1A1B1C"/>
<path d="M82.25 11.2V0H83.706L89.298 8.768V0H90.642V11.2H89.194L83.594 2.432V11.2H82.25Z" fill="#1A1B1C"/>
<path d="M96.3145 0H97.9385L102.01 11.2H100.587L99.7545 8.912H94.4985L93.6745 11.2H92.2425L96.3145 0ZM94.9945 7.568H99.2585L97.1225 1.72L94.9945 7.568Z" fill="#1A1B1C"/>
<path d="M110.66 0V1.344H106.932V11.2H105.588V1.344H101.868V0H110.66Z" fill="#1A1B1C"/>
<path d="M116.65 11.408C115.754 11.408 114.975 11.1893 114.314 10.752C113.658 10.3147 113.151 9.728 112.794 8.992C112.442 8.25067 112.266 7.42933 112.266 6.528V0H113.61V6.528C113.61 7.168 113.727 7.75733 113.962 8.296C114.202 8.83467 114.546 9.264 114.994 9.584C115.447 9.904 115.999 10.064 116.65 10.064C117.311 10.064 117.866 9.904 118.314 9.584C118.762 9.25867 119.1 8.82933 119.33 8.296C119.564 7.75733 119.682 7.168 119.682 6.528V0H121.026V6.528C121.026 7.20533 120.924 7.84 120.722 8.432C120.519 9.01867 120.226 9.536 119.842 9.984C119.463 10.432 119.004 10.7813 118.466 11.032C117.927 11.2827 117.322 11.408 116.65 11.408Z" fill="#1A1B1C"/>
<path d="M122.844 11.2V0H126.78C127.377 0 127.916 0.146667 128.396 0.440001C128.881 0.733334 129.265 1.13067 129.548 1.632C129.836 2.128 129.98 2.68267 129.98 3.296C129.98 3.83467 129.873 4.32533 129.66 4.768C129.446 5.21067 129.153 5.58133 128.78 5.88C128.412 6.17333 127.993 6.376 127.524 6.488L130.244 11.2H128.692L126.02 6.6H124.188V11.2H122.844ZM124.188 5.256H126.644C127.006 5.256 127.34 5.168 127.644 4.992C127.948 4.81067 128.188 4.568 128.364 4.264C128.545 3.95467 128.636 3.608 128.636 3.224C128.636 2.83467 128.545 2.488 128.364 2.184C128.188 1.87467 127.948 1.632 127.644 1.456C127.34 1.27467 127.006 1.184 126.644 1.184H124.188V5.256Z" fill="#1A1B1C"/>
<path d="M132.094 11.2V0H138.966V1.344H133.438V4.528H137.966V5.872H133.438V9.856H138.966V11.2H132.094Z" fill="#1A1B1C"/>
</svg>
