<svg width="183" height="16" viewBox="0 0 183 16" fill="none" xmlns="http://www.w3.org/2000/svg">
<path d="M17.1152 0H31.5972V15H17.1152V0Z" fill="white"/>
<path d="M14.4824 15L14.4824 -9.53674e-07V-9.53674e-07C6.48422 -5.91557e-07 0.000408767 6.48382 0.000409104 14.482L0.000409126 15L14.4824 15Z" fill="white"/>
<path d="M36.8633 15.2727L39.7176 0H41.0762L45.0575 10.8436L49.0282 0H50.3869L53.2517 15.2727H51.4506L49.3757 4.18909L45.6367 14.4436H44.4677L40.7287 4.18909L38.6643 15.2727H36.8633Z" fill="white"/>
<path d="M55.4184 15.2727V0H64.4657V1.83273H57.1878V6.17455H63.1491V8.00727H57.1878V13.44H64.4657V15.2727H55.4184Z" fill="white"/>
<path d="M77.9274 0V1.83273H73.0193V15.2727H71.2498V1.83273H66.3523V0H77.9274Z" fill="white"/>
<path d="M83.1096 0H85.2477L90.6087 15.2727H88.7339L87.6385 12.1527H80.7188L79.6339 15.2727H77.7486L83.1096 0ZM81.3718 10.32H86.9855L84.1734 2.34545L81.3718 10.32Z" fill="white"/>
<path d="M92.5285 15.2727V0H94.298V13.44H100.902V15.2727H92.5285Z" fill="white"/>
<path d="M108.286 15.2727V0H110.203L117.565 11.9564V0H119.334V15.2727H117.428L110.055 3.31636V15.2727H108.286Z" fill="white"/>
<path d="M126.803 0H128.941L134.302 15.2727H132.427L131.331 12.1527H124.412L123.327 15.2727H121.442L126.803 0ZM125.065 10.32H130.678L127.866 2.34545L125.065 10.32Z" fill="white"/>
<path d="M145.688 0V1.83273H140.78V15.2727H139.011V1.83273H134.113V0H145.688Z" fill="white"/>
<path d="M153.575 15.5564C152.395 15.5564 151.37 15.2582 150.499 14.6618C149.636 14.0655 148.969 13.2655 148.498 12.2618C148.035 11.2509 147.803 10.1309 147.803 8.90182V0H149.572V8.90182C149.572 9.77455 149.727 10.5782 150.036 11.3127C150.352 12.0473 150.805 12.6327 151.394 13.0691C151.991 13.5055 152.718 13.7236 153.575 13.7236C154.445 13.7236 155.176 13.5055 155.765 13.0691C156.355 12.6255 156.801 12.04 157.103 11.3127C157.412 10.5782 157.566 9.77455 157.566 8.90182V0H159.336V8.90182C159.336 9.82546 159.202 10.6909 158.936 11.4982C158.669 12.2982 158.283 13.0036 157.777 13.6145C157.279 14.2255 156.675 14.7018 155.966 15.0436C155.256 15.3855 154.459 15.5564 153.575 15.5564Z" fill="white"/>
<path d="M161.73 15.2727V0H166.911C167.698 0 168.407 0.2 169.039 0.600001C169.678 1 170.184 1.54182 170.556 2.22545C170.935 2.90182 171.124 3.65818 171.124 4.49455C171.124 5.22909 170.984 5.89818 170.703 6.50182C170.422 7.10546 170.036 7.61091 169.545 8.01818C169.06 8.41818 168.509 8.69455 167.891 8.84727L171.472 15.2727H169.429L165.911 9H163.499V15.2727H161.73ZM163.499 7.16727H166.732C167.21 7.16727 167.649 7.04727 168.049 6.80727C168.449 6.56 168.765 6.22909 168.997 5.81455C169.236 5.39273 169.355 4.92 169.355 4.39636C169.355 3.86546 169.236 3.39273 168.997 2.97818C168.765 2.55636 168.449 2.22545 168.049 1.98546C167.649 1.73818 167.21 1.61455 166.732 1.61455H163.499V7.16727Z" fill="white"/>
<path d="M173.908 15.2727V0H182.955V1.83273H175.677V6.17455H181.638V8.00727H175.677V13.44H182.955V15.2727H173.908Z" fill="white"/>
</svg>
